<svg xmlns="http://www.w3.org/2000/svg" viewBox="0 0 128 128" fill="none"><circle cx="64" cy="64" r="59" fill="none" stroke="#d5a7cc" stroke-width="1" /><circle cx="64" cy="64" r="52" fill="none" stroke="#d5a7cc" stroke-width="0.6" opacity=".55"/><path d="M120.00 64.00L125.00 64.00" stroke="#d5a7cc" stroke-width="1.5" fill="none" /><path d="M103.60 103.60L107.13 107.13" stroke="#d5a7cc" stroke-width="1.5" fill="none" /><path d="M64.00 120.00L64.00 125.00" stroke="#d5a7cc" stroke-width="1.5" fill="none" /><path d="M24.40 103.60L20.87 107.13" stroke="#d5a7cc" stroke-width="1.5" fill="none" /><path d="M8.00 64.00L3.00 64.00" stroke="#d5a7cc" stroke-width="1.5" fill="none" /><path d="M24.40 24.40L20.87 20.87" stroke="#d5a7cc" stroke-width="1.5" fill="none" /><path d="M64.00 8.00L64.00 3.00" stroke="#d5a7cc" stroke-width="1.5" fill="none" /><path d="M103.60 24.40L107.13 20.87" stroke="#d5a7cc" stroke-width="1.5" fill="none" /><g transform="translate(64 64)" stroke="#d5a7cc" stroke-width="2.5" stroke-linecap="round" stroke-linejoin="round"><path d="M-13-25H13V-8L21 10V24H-21V10L-13-8Z M0-23L6-15L-4-7L5 3L0 11"/><circle cx="-27" cy="-15" r="2"/><circle cx="-27" cy="-3" r="2"/><circle cx="-27" cy="9" r="2"/></g></svg>